:SAMPLES-PER-SECOND 30
:FULLY-SPECIFIED
:DEGREES
228
root  60.9018 37.2003 -7.03815 -137.08 6.52341 177.147
RightUpLeg  -74.7558 -20.2869 21.7168
RightLeg  34.8772 -2.92349 -2.45103
RightFoot  -4.89369 0.430282 -8.20449
RightToes  0.000482159 0.542163 -0.142577
Spine  66.7883 -5.75374 7.99178
Spine1  11.7415 1.59375 -6.97996
HEad  -30.988 -8.23167 -0.222378
LeftShoulder1  5.42626 -23.4273 -13.0308
LeftArm  -97.7962 -78.7422 41.6382
LeftForeArm  12.292 -15.6591 -2.71012
LeftHand  -0.25398 0.0180481 5.50724
RightShoulder  2.36533 14.6168 5.25626
RightArm  -74.3254 44.9133 -26.6846
RightForeArm  -31.3572 6.28124 -0.43146
RightHand  -1.56935 7.41021 -14.6063
LeftUpLeg  -80.561 26.9625 -40.4511
LeftLeg  30.0877 -7.19361 -4.14251
LeftFoot  1.78748 -0.957947 8.21477
LeftToes  1.06247e-005 4.65855e-005 -8.18504e-006
229
root  60.8277 37.158 -6.85041 -137.573 6.49442 177.198
RightUpLeg  -74.706 -20.3482 21.6051
RightLeg  35.1185 -3.01032 -2.53682
RightFoot  -4.69616 0.461579 -8.47202
RightToes  0.000482159 0.542163 -0.142577
Spine  66.6894 -5.81243 8.02334
Spine1  11.6753 1.55172 -7.0726
HEad  -31.0785 -7.90144 -0.39444
LeftShoulder1  5.49203 -23.2445 -13.454
LeftArm  -101.9 -79.2891 46.5525
LeftForeArm  11.8723 -14.0453 -2.70117
LeftHand  -0.25398 0.0180481 5.50724
RightShoulder  2.51544 15.2167 5.6893
RightArm  -74.6065 45.3121 -27.5535
RightForeArm  -34.5689 5.49206 -0.426409
RightHand  -1.74091 7.44871 -16.0901
LeftUpLeg  -80.4213 26.9512 -40.1859
LeftLeg  30.3178 -6.93209 -4.0187
LeftFoot  1.85872 -0.995095 8.4859
LeftToes  1.06247e-005 4.65855e-005 -8.18504e-006
230
root  60.7414 37.1192 -6.61855 -138.226 6.39374 177.324
RightUpLeg  -74.531 -20.5875 21.8008
RightLeg  35.1646 -3.00135 -2.53427
RightFoot  -4.52514 0.526464 -9.3231
RightToes  0.000482159 0.542163 -0.142577
Spine  66.6859 -5.71343 8.12452
Spine1  11.4225 1.56455 -6.72724
HEad  -30.991 -8.10852 -0.504777
LeftShoulder1  5.72 -23.1731 -14.4487
LeftArm  -107.55 -79.8867 52.8021
LeftForeArm  11.325 -11.9508 -2.75829
LeftHand  -0.25398 0.0180481 5.50724
RightShoulder  2.5165 15.596 5.3899
RightArm  -75.1644 45.9418 -28.0849
RightForeArm  -37.1975 4.03936 -0.730566
RightHand  -1.91016 7.35539 -17.7004
LeftUpLeg  -80.1309 27.017 -39.8255
LeftLeg  30.4161 -6.73738 -3.91296
LeftFoot  1.87395 -1.02039 8.69248
LeftToes  1.06247e-005 4.65855e-005 -8.18504e-006
231
root  60.6479 37.0934 -6.34966 -139.075 6.24277 177.564
RightUpLeg  -74.0672 -20.9826 22.2064
RightLeg  34.9262 -2.83655 -2.3908
RightFoot  -4.35388 0.588294 -10.081
RightToes  0.000482159 0.542163 -0.142577
Spine  66.685 -5.61563 8.34802
Spine1  11.1859 1.76245 -6.63407
HEad  -30.5044 -8.21606 -0.965774
LeftShoulder1  5.76024 -23.2232 -14.5688
LeftArm  -114.313 -80.4678 59.5712
LeftForeArm  12.1663 -9.69359 -2.68429
LeftHand  -0.25398 0.0180481 5.50724
RightShoulder  2.5039 15.6261 5.29259
RightArm  -75.2929 46.9661 -28.9692
RightForeArm  -38.8822 2.43344 -0.792782
RightHand  -2.69583 8.75179 -22.1684
LeftUpLeg  -79.6461 27.2245 -39.3787
LeftLeg  30.3437 -6.65934 -3.85249
LeftFoot  1.86087 -1.06138 9.05331
LeftToes  1.06247e-005 4.65855e-005 -8.18504e-006
232
root  60.5544 37.0948 -6.05102 -140.071 6.04266 177.971
RightUpLeg  -73.2863 -21.4794 22.7765
RightLeg  34.3675 -2.45845 -2.06845
RightFoot  -4.06254 0.625787 -10.2336
RightToes  0.000482159 0.542163 -0.142577
Spine  66.5633 -5.60099 8.44831
Spine1  11.0613 1.9314 -6.92758
HEad  -29.9665 -7.71782 -1.40453
LeftShoulder1  5.58658 -23.2292 -13.8533
LeftArm  -120.601 -80.6817 66.3998
LeftForeArm  15.1712 -7.25943 -2.58879
LeftHand  -0.25398 0.0180481 5.50724
RightShoulder  2.56159 15.7715 5.51743
RightArm  -74.831 48.5809 -30.2573
RightForeArm  -38.4818 0.717394 -0.486668
RightHand  -4.29453 11.9215 -28.6326
LeftUpLeg  -78.9215 27.5239 -38.7012
LeftLeg  29.9685 -6.47427 -3.67914
LeftFoot  1.98064 -1.15458 9.75655
LeftToes  1.06247e-005 4.65855e-005 -8.18504e-006
233
root  60.467 37.1377 -5.73056 -141.258 5.72003 178.486
RightUpLeg  -72.1847 -22.1538 23.4785
RightLeg  33.5058 -1.93331 -1.63461
RightFoot  -3.5729 0.664149 -10.1002
RightToes  0.000482159 0.542163 -0.142577
Spine  66.3251 -5.66917 8.25905
Spine1  11.0075 1.82146 -7.23138
HEad  -29.5869 -6.59208 -1.7604
LeftShoulder1  5.41596 -23.1957 -13.1839
LeftArm  -123.107 -80.4688 70.4159
LeftForeArm  18.9274 -4.49466 -2.65093
LeftHand  -0.25398 0.0180481 5.50724
RightShoulder  2.62999 16.1348 5.63002
RightArm  -74.7124 50.983 -30.8689
RightForeArm  -34.5654 -0.736403 -0.237255
RightHand  -5.91794 14.8872 -33.4482
LeftUpLeg  -77.7584 27.8779 -37.659
LeftLeg  29.1461 -6.21393 -3.39747
LeftFoot  2.26713 -1.25303 10.356
LeftToes  1.06247e-005 4.65855e-005 -8.18504e-006
234
root  60.3843 37.2217 -5.40136 -142.717 5.21741 178.975
RightUpLeg  -70.7742 -23.1375 24.2105
RightLeg  32.4311 -1.41357 -1.21995
RightFoot  -2.93261 0.729245 -10.1508
RightToes  0.000482159 0.542163 -0.142577
Spine  65.931 -5.82192 8.03229
Spine1  11.0967 1.58984 -7.50645
HEad  -29.1211 -5.28073 -2.46521
LeftShoulder1  5.32966 -23.4507 -12.619
LeftArm  -118.808 -80.4634 67.4408
LeftForeArm  21.1163 -1.76967 -2.70011
LeftHand  -0.25398 0.0180481 5.50724
RightShoulder  2.70864 16.1581 6.06447
RightArm  -75.0983 54.0325 -29.8959
RightForeArm  -27.5799 -1.00157 -0.158509
RightHand  -6.64405 16.2242 -35.0498
LeftUpLeg  -76.0014 28.2641 -36.3001
LeftLeg  27.9294 -6.17553 -3.20008
LeftFoot  2.6538 -1.30854 10.4985
LeftToes  1.06247e-005 4.65855e-005 -8.18504e-006
235
root  60.3035 37.3365 -5.07473 -144.475 4.5657 179.347
RightUpLeg  -69.0821 -24.4399 24.7799
RightLeg  31.2742 -1.00598 -0.906661
RightFoot  -2.24971 0.810852 -10.3506
RightToes  0.000482159 0.542163 -0.142577
Spine  65.3358 -5.97167 7.91558
Spine1  11.3575 1.37324 -7.65075
HEad  -28.4543 -4.2164 -3.51013
LeftShoulder1  5.43585 -23.9155 -12.6665
LeftArm  -105.296 -80.9768 54.2493
LeftForeArm  21.4086 -0.00752824 -2.69861
LeftHand  -0.25398 0.0180481 5.50724
RightShoulder  2.84665 15.9073 7.06066
RightArm  -73.7878 56.992 -26.5678
RightForeArm  -20.3725 0.344404 0.240894
RightHand  -6.69666 16.4503 -34.9512
LeftUpLeg  -73.5814 28.5174 -34.5785
LeftLeg  26.4558 -6.11128 -2.96307
LeftFoot  3.23168 -1.39409 10.7117
LeftToes  1.06247e-005 4.65855e-005 -8.18504e-006
236
root  60.2297 37.4793 -4.7555 -146.522 3.81833 179.595
RightUpLeg  -67.0716 -25.9649 25.0282
RightLeg  30.064 -0.693145 -0.676875
RightFoot  -1.54141 0.89529 -10.5234
RightToes  0.000482159 0.542163 -0.142577
Spine  64.548 -5.98778 7.76331
Spine1  11.8025 1.06898 -7.31176
HEad  -27.8267 -3.57218 -4.36833
LeftShoulder1  5.89628 -24.1711 -14.2818
LeftArm  -81.1682 -80.8069 29.9354
LeftForeArm  21.2338 0.156676 -2.84181
LeftHand  -0.25398 0.0180481 5.50724
RightShoulder  2.99435 16.0161 7.81574
RightArm  -68.6648 58.9864 -20.3296
RightForeArm  -14.9093 2.3782 1.14367
RightHand  -6.69139 16.5356 -34.7996
LeftUpLeg  -70.3576 28.3469 -32.1348
LeftLeg  24.7258 -5.29029 -2.32495
LeftFoot  4.12449 -1.56303 11.2836
LeftToes  1.06247e-005 4.65855e-005 -8.18504e-006
237
root  60.1725 37.6547 -4.45082 -148.795 2.96637 179.788
RightUpLeg  -64.6843 -27.667 25.0371
RightLeg  28.6524 -0.365582 -0.455561
RightFoot  -0.714563 0.991566 -10.6704
RightToes  0.000482159 0.542163 -0.142577
Spine  63.4184 -5.93858 7.86991
Spine1  12.6981 1.00874 -7.02609
HEad  -27.427 -3.27069 -5.0021
LeftShoulder1  6.49292 -24.6457 -16.1862
LeftArm  -56.3589 -78.1749 4.28794
LeftForeArm  21.4861 -0.854421 -2.81991
LeftHand  -0.25398 0.0180481 5.50724
RightShoulder  3.15632 16.0356 8.73228
RightArm  -60.7045 59.7061 -12.6502
RightForeArm  -10.6839 3.96013 2.25642
RightHand  -6.65157 16.5814 -34.5395
LeftUpLeg  -66.4365 27.6986 -28.9131
LeftLeg  22.7968 -3.87443 -1.45482
LeftFoot  5.2436 -1.68351 11.2971
LeftToes  1.06247e-005 4.65855e-005 -8.18504e-006
238
root  60.1404 37.866 -4.17006 -151.107 1.94077 180
RightUpLeg  -62.0134 -29.5923 25.0833
RightLeg  26.8202 0.0502855 -0.206408
RightFoot  0.263331 1.09199 -10.6875
RightToes  0.000482159 0.542163 -0.142577
Spine  62.1479 -5.92675 8.32494
Spine1  13.5297 1.29233 -7.16837
HEad  -26.8661 -2.59202 -6.24312
LeftShoulder1  7.08374 -25.211 -17.9062
LeftArm  -41.0328 -73.2111 -12.4855
LeftForeArm  21.8113 -2.01454 -2.56045
LeftHand  -0.25398 0.0180481 5.50724
RightShoulder  3.3871 15.669 10.412
RightArm  -51.4607 59.2609 -4.55793
RightForeArm  -6.91989 5.06654 3.39443
RightHand  -6.34362 16.1412 -33.6765
LeftUpLeg  -62.5579 27.0643 -25.8446
LeftLeg  20.9211 -3.2075 -1.01732
LeftFoot  6.67506 -1.68981 10.3756
LeftToes  1.06247e-005 4.65855e-005 -8.18504e-006
239
root  60.1391 38.1157 -3.91049 -153.266 0.648773 -179.861
RightUpLeg  -59.3231 -31.8339 25.315
RightLeg  24.4691 0.551078 0.0131418
RightFoot  1.27343 1.16696 -10.4405
RightToes  0.000482159 0.542163 -0.142577
Spine  61.0242 -5.92109 8.51198
Spine1  13.613 1.23546 -6.92754
HEad  -26.1456 -0.324688 -8.83213
LeftShoulder1  7.89812 -24.5379 -21.6796
LeftArm  -32.8048 -67.0407 -20.7688
LeftForeArm  21.39 -2.747 -2.74792
LeftHand  -0.25398 0.0180481 5.50724
RightShoulder  3.70656 16.0361 11.8509
RightArm  -41.6955 57.2378 4.10378
RightForeArm  -4.2593 6.31547 4.49124
RightHand  -5.85869 15.1913 -32.6209
LeftUpLeg  -59.4311 27.1019 -24.104
LeftLeg  19.1359 -4.17561 -1.26978
LeftFoot  9.03792 -1.8104 9.71585
LeftToes  1.06247e-005 4.65855e-005 -8.18504e-006
